# xmcd
#
# Track frame offsets:
#        150
#        19555
#        36235
#        54642
#        73232
#        91242
#        109075
#        127575
#        145855
#        163940
#        183010
#        201627
#        219977
#        237132
#        255962
#        274392
#        292662
#        310197
#        340260
#
# Disc length: 4795 seconds
#
# Revision: 0
# Processed by: cddbd v1.5.1PL2 Copyright (c) Steve Scherf et al.
# Submitted via: ExactAudioCopy v0.95b1
#
DISCID=0f12b913
DTITLE=Various Artist - SUPER EUROBEAT Vol.163
DYEAR=2005
DGENRE=Eurodance
TTITLE0=GO 2 - SUPER STRIKER
TTITLE1=PAUL HARRIS - EVERYBODY'S LOOKING
TTITLE2=KEVIN JOHNSON - GOT TO BE YOUR LOVER
TTITLE3=LINDA ROSS - LOVE IS DANGER 2005
TTITLE4=THE FACTORY TEAM - GUN BOY
TTITLE5=QUEEN 26 - MORE THAN A FEELING
TTITLE6=JOCK LEE - I WANNA ROCK WITH YOU
TTITLE7=LOLLY'O - CHILLY BOY
TTITLE8=D.ESSEX - FAHRENHEIT EURONIGHT
TTITLE9=NORMA SHEFFIELD - FALLING DOWN
TTITLE10=RICK CASTLE - MOVE INTO MY HEART
TTITLE11=GROOVE TWINS - VIVA THE NIGHT
TTITLE12=SOPHIE - TOUCH ME TOUCH ME
TTITLE13=VAN T.K. - TAKE ANOTHER CHANCE
TTITLE14=MICKEY B. - NEVER MIND
TTITLE15=VIVI - JUST FOR ME
TTITLE16=NEO - I WAS BORN FOR BURNING
TTITLE17=JEFF DRILLER - SUPER GUTS
TTITLE18=CCCD
EXTD=
EXTT0=
EXTT1=
EXTT2=
EXTT3=
EXTT4=
EXTT5=
EXTT6=
EXTT7=
EXTT8=
EXTT9=
EXTT10=
EXTT11=
EXTT12=
EXTT13=
EXTT14=
EXTT15=
EXTT16=
EXTT17=
EXTT18=
PLAYORDER=
